<svg width="64" height="64" viewBox="0 0 64 64" fill="none" xmlns="http://www.w3.org/2000/svg">
<g clip-path="url(#clip0_174_162)">
<path fill-rule="evenodd" clip-rule="evenodd" d="M0 64H15.6312L29.8758 50.5043H49.3867L37.5832 64H52C58.6274 64 64 58.6274 64 52V12C64 5.37258 58.6274 0 52 0H49.3867L0 64ZM52.3611 34.4209C52.3611 34.4209 47.5032 34.905 44.4891 35.6369C40.9173 36.505 35.6571 38.7645 35.6571 38.7645L53.7752 13.2397L52.3611 34.4209Z" fill="black"/>
<path d="M23.9032 17.0699C22.3255 17.0699 21.3613 16.1349 21.3613 14.5864H22.8709C22.8709 15.2974 23.2507 15.7162 23.8838 15.7162C24.5752 15.7162 25.0525 15.2097 25.0525 14.4695C25.0525 13.7391 24.6434 13.2522 24.0396 13.2522C23.5819 13.2522 23.2118 13.4567 22.9488 13.8657L21.5951 13.593L23.0949 9.73633H26.9126L26.6886 11.1582H23.9617L23.5137 12.2393C23.7766 12.064 24.0883 11.9861 24.4779 11.9861C25.7926 11.9861 26.6692 12.921 26.6692 14.3332C26.6692 15.9109 25.5005 17.0699 23.9032 17.0699Z" fill="black"/>
<path d="M15.1372 14.1092C15.1372 11.5186 16.6565 9.59998 18.7115 9.59998C20.4158 9.59998 21.4579 10.72 21.4579 12.5607C21.4579 15.1513 19.9386 17.0699 17.8836 17.0699C16.1793 17.0699 15.1372 15.9499 15.1372 14.1092ZM16.6565 14.0702C16.6565 15.1513 17.1045 15.7162 17.9713 15.7162C19.101 15.7162 19.9386 14.3916 19.9386 12.5996C19.9386 11.5186 19.4906 10.9537 18.6238 10.9537C17.4941 10.9537 16.6565 12.2782 16.6565 14.0702Z" fill="black"/>
<path d="M12.142 17.0699C10.5643 17.0699 9.6001 16.1349 9.6001 14.5864H11.1097C11.1097 15.2974 11.4895 15.7162 12.1225 15.7162C12.814 15.7162 13.2912 15.2097 13.2912 14.4695C13.2912 13.7391 12.8822 13.2522 12.2784 13.2522C11.8206 13.2522 11.4505 13.4567 11.1876 13.8657L9.83384 13.593L11.3337 9.73633H15.1514L14.9274 11.1582H12.2004L11.7524 12.2393C12.0154 12.064 12.3271 11.9861 12.7166 11.9861C14.0314 11.9861 14.9079 12.921 14.9079 14.3332C14.9079 15.9109 13.7392 17.0699 12.142 17.0699Z" fill="black"/>
</g>
<defs>
<clipPath id="clip0_174_162">
<rect width="64" height="64" rx="12" fill="white"/>
</clipPath>
</defs>
</svg>