<svg width="183" height="183" viewBox="0 0 183 183" xmlns="http://www.w3.org/2000/svg">
<path fill-rule="evenodd" clip-rule="evenodd" d="M91.303 166.297C132.842 166.297 166.576 132.564 166.576 91.0242C166.576 49.4849 132.842 15.7515 91.303 15.7515C49.7636 15.7515 16.0303 49.4849 16.0303 91.0242C16.0303 132.564 49.7636 166.297 91.303 166.297ZM91.303 164.067C131.727 164.067 164.345 131.17 164.345 91.0242C164.345 50.8788 131.727 17.9818 91.303 17.9818C50.8788 17.9818 18.2606 50.6 18.2606 91.0242C18.2606 131.448 50.8788 164.067 91.303 164.067ZM99.1091 2.92728C94.6485 -0.975759 87.9576 -0.975759 83.497 2.92728L80.4303 5.71516C77.3636 8.50304 72.903 9.3394 68.7212 7.94546L64.8182 6.55152C59.2424 4.60001 53.1091 7.1091 50.3212 12.6849L48.3697 16.3091C46.4182 20.2121 42.7939 22.7212 38.6121 23L34.4303 23.2788C28.5758 23.8364 23.8364 28.297 23.2788 34.4303L23 38.6121C22.7212 42.7939 20.2121 46.697 16.3091 48.3697L12.6848 50.3212C7.38788 53.1091 4.87879 59.2424 6.55151 64.8182L7.94545 68.7212C9.33939 72.6242 8.50303 77.0849 5.71515 80.4303L2.92727 83.497C-0.975758 87.9576 -0.975758 94.6485 2.92727 99.1091L5.71515 102.176C8.50303 105.242 9.33939 109.703 7.94545 113.885L6.55151 117.788C4.6 123.364 7.10909 129.497 12.6848 132.285L16.3091 134.236C20.2121 136.188 22.7212 139.812 23 143.994L23.2788 148.176C23.8364 154.03 28.297 158.77 34.4303 159.327L38.6121 159.606C42.7939 159.885 46.697 162.394 48.3697 166.297L50.3212 169.921C53.1091 175.218 59.2424 177.727 64.8182 176.055L68.7212 174.661C72.6242 173.267 77.0848 174.103 80.4303 176.891L83.497 179.679C87.9576 183.582 94.6485 183.582 99.1091 179.679L102.176 176.891C105.242 174.103 109.703 173.267 113.885 174.661L117.788 176.055C123.364 178.006 129.497 175.497 132.285 169.921L134.236 166.297C136.188 162.394 139.812 159.885 143.994 159.606L148.176 159.327C154.03 158.77 158.77 154.309 159.327 148.176L159.606 143.994C159.885 139.812 162.394 135.909 166.297 134.236L169.921 132.285C175.218 129.497 177.727 123.364 176.055 117.788L174.661 113.885C173.267 109.982 174.103 105.521 176.891 102.176L179.679 99.1091C183.582 94.6485 183.582 87.9576 179.679 83.497L176.891 80.4303C174.103 77.3636 173.267 72.903 174.661 68.7212L176.055 64.8182C178.006 59.2424 175.497 53.1091 169.921 50.3212L166.297 48.3697C162.394 46.4182 159.885 42.7939 159.606 38.6121L159.327 34.4303C158.77 28.5758 154.309 23.8364 148.176 23.2788L143.994 23C139.812 22.7212 135.909 20.2121 134.236 16.3091L132.285 12.6849C129.497 7.38788 123.364 4.87879 117.788 6.55152L113.885 7.94546C109.982 9.3394 105.521 8.50304 102.176 5.71516L99.1091 2.92728ZM100.782 7.38788L97.7151 4.6C94.0909 1.25454 88.5152 1.25454 84.8909 4.6L81.8242 7.38788C78.2 10.7333 72.903 11.5697 68.1636 10.1758L64.2606 8.78182C59.5212 7.1091 54.503 9.3394 52.2727 13.8L50.3212 17.4242C48.0909 21.8849 43.6303 24.6727 38.8909 25.2303L34.7091 25.5091C29.9697 25.7879 26.0667 29.6909 25.5091 34.4303L25.2303 38.6121C24.9515 43.6303 21.8848 48.0909 17.4242 50.0424L13.8 51.9939C9.33939 54.2242 7.38788 59.2424 8.78182 63.9818L10.1758 67.8849C11.8485 72.6242 10.7333 77.6424 7.38788 81.5455L4.6 84.6121C1.53333 88.2364 1.53333 93.8121 4.87879 97.4364L7.66667 100.503C11.0121 104.127 11.8485 109.424 10.4545 114.164L9.06061 118.067C7.38788 122.806 9.61818 127.824 14.0788 130.055L17.703 132.006C22.1636 134.236 24.9515 138.697 25.5091 143.436L25.7879 147.618C26.0667 152.636 29.9697 156.539 34.9879 156.818L39.1697 157.097C44.1879 157.376 48.6485 160.442 50.6 164.903L52.5515 168.527C54.7818 172.988 59.8 174.939 64.5394 173.545L68.4424 172.152C73.1818 170.479 78.2 171.594 82.103 174.939L85.1697 177.727C88.7939 181.073 94.3697 181.073 97.9939 177.727L101.061 174.939C104.685 171.594 109.982 170.758 114.721 172.152L118.624 173.545C123.364 175.218 128.382 172.988 130.612 168.527L132.564 164.903C134.794 160.442 139.255 157.655 143.994 157.097L148.176 156.818C153.194 156.539 157.097 152.636 157.376 147.618L157.655 143.436C157.933 138.418 161 133.958 165.461 132.006L169.085 130.055C173.545 127.824 175.497 122.806 174.103 118.067L172.709 114.164C171.036 109.424 172.152 104.406 175.497 100.503L178.285 97.4364C181.63 93.8121 181.63 88.2364 178.285 84.6121L175.497 81.5455C172.152 77.9212 171.315 72.6242 172.709 67.8849L174.103 63.9818C175.776 59.2424 173.545 54.2242 169.085 51.9939L165.461 50.0424C161 47.8121 158.212 43.3515 157.655 38.6121L157.376 34.4303C156.539 29.6909 152.636 25.7879 147.897 25.2303L143.715 24.9515C138.697 24.6727 134.236 21.6061 132.285 17.1455L130.333 13.5212C128.103 9.06061 123.085 7.1091 118.345 8.50304L114.442 9.89697C109.703 11.5697 104.685 10.4546 100.782 7.38788Z" fill="black"/>
<path d="M107.008 138.336C109.886 137.177 112.635 138.213 113.879 140.927L110.983 142.094C110.414 140.852 109.33 140.406 108.099 140.902C106.778 141.434 106.345 142.596 106.98 143.98C107.598 145.328 108.725 145.82 110.046 145.287C110.951 144.923 111.554 144.133 111.587 143.364L114.494 142.781L116.04 150.501L108.764 153.433L107.543 150.772L112.72 148.686L112.367 146.559C111.942 147.13 111.281 147.606 110.467 147.934C107.86 148.984 105.277 148.029 104.057 145.368C102.706 142.423 103.913 139.583 107.008 138.336Z" fill="black"/>
<path d="M95.4859 148.592C95.6986 153.056 93.3079 156.068 89.5422 155.997C85.7764 155.926 83.0941 152.818 82.8814 148.354C82.6687 143.89 84.8689 140.971 88.8298 141.046C92.7907 141.121 95.2733 144.128 95.4859 148.592ZM92.3641 148.533C92.2164 145.433 90.9714 143.852 88.9617 143.814C86.952 143.776 85.8556 145.313 86.0033 148.413C86.1556 151.61 87.4006 153.191 89.4103 153.229C91.42 153.267 92.5164 151.73 92.3641 148.533Z" fill="black"/>
<path d="M73.0021 137.115C75.8585 138.327 77.0723 141.002 76.0365 143.802L73.1621 142.582C73.636 141.301 73.1838 140.22 71.9622 139.702C70.6507 139.145 69.5241 139.662 68.9961 141.09C68.4816 142.481 68.9315 143.625 70.2429 144.181C71.1412 144.562 72.1256 144.43 72.6927 143.908L75.1619 145.549L70.8037 152.106L63.5818 149.042L64.5972 146.296L69.7352 148.476L70.9873 146.721C70.2838 146.824 69.4795 146.695 68.6711 146.352C66.0842 145.254 64.9308 142.753 65.9463 140.008C67.07 136.969 69.9301 135.811 73.0021 137.115Z" fill="black"/>
<path d="M74.9601 44.8917C72.082 46.0513 69.3334 45.0151 68.0886 42.3011L70.9848 41.1342C71.5543 42.3759 72.6381 42.8219 73.869 42.326C75.1904 41.7936 75.6226 40.6317 74.988 39.2481C74.3696 37.9 73.2433 37.4081 71.9219 37.9405C71.0168 38.3051 70.4138 39.0945 70.3809 39.8644L67.4741 40.4471L65.9275 32.7267L73.2042 29.7949L74.4246 32.4557L69.2476 34.5415L69.6014 36.6687C70.026 36.0983 70.6868 35.6219 71.5014 35.2937C74.108 34.2435 76.691 35.1994 77.9114 37.8601C79.262 40.8047 78.0554 43.6446 74.9601 44.8917Z" fill="black"/>
<path d="M86.4833 34.6367C86.2706 30.1728 88.6613 27.1602 92.427 27.2313C96.1928 27.3023 98.8751 30.4106 99.0878 34.8745C99.3005 39.3384 97.1003 42.2571 93.1394 42.1824C89.1785 42.1077 86.6959 39.1006 86.4833 34.6367ZM89.6051 34.6956C89.7528 37.795 90.9978 39.3765 93.0075 39.4144C95.0172 39.4523 96.1136 37.915 95.9659 34.8156C95.8136 31.6187 94.5686 30.0372 92.5589 29.9993C90.5492 29.9614 89.4528 31.4987 89.6051 34.6956Z" fill="black"/>
<path d="M108.966 46.1132C106.11 44.9012 104.896 42.2263 105.932 39.4258L108.806 40.6455C108.332 41.9267 108.785 43.008 110.006 43.5263C111.318 44.0828 112.444 43.5656 112.972 42.1379C113.487 40.7468 113.037 39.603 111.725 39.0466C110.827 38.6654 109.843 38.7983 109.276 39.32L106.806 37.6794L111.165 31.1218L118.386 34.1862L117.371 36.9317L112.233 34.7516L110.981 36.5073C111.684 36.4034 112.489 36.5329 113.297 36.876C115.884 37.9736 117.037 40.4747 116.022 43.2202C114.898 46.2586 112.038 47.4167 108.966 46.1132Z" fill="black"/>
<path fill-rule="evenodd" clip-rule="evenodd" d="M100.71 77.2902L99.6014 93.8982C99.6014 93.8982 95.7923 94.2778 93.429 94.8516C92.4649 95.086 91.3439 95.4496 90.2883 95.8257C88.2775 96.5422 86.5039 97.304 86.5039 97.304L100.71 77.2902ZM97.4997 91.8975C97.3724 91.9139 97.241 91.9311 97.1062 91.9491C95.8445 92.1176 94.2045 92.3682 92.9028 92.6843C92.749 92.7217 92.5917 92.762 92.4328 92.8045L97.9589 85.0194L97.4997 91.8975ZM82.8596 108.739L74.8398 116.338C72.8176 118.253 70.1379 119.321 67.3523 119.321C61.9063 119.321 58.833 113.068 62.16 108.756L92.8396 68.9986C94.9418 66.2743 98.1884 64.6788 101.629 64.6788C106.781 64.6788 110.958 68.8551 110.958 74.0069V105.939C110.958 113.33 104.966 119.321 97.5758 119.321H94.1562C89.8453 119.321 87.5408 114.244 90.3789 110.999L92.3555 108.739H82.8596ZM81.9708 106.509L73.3058 114.718C71.6979 116.242 69.5673 117.091 67.3523 117.091C63.7583 117.091 61.7301 112.964 63.9258 110.119L94.6053 70.3611C96.2852 68.1841 98.8796 66.9091 101.629 66.9091C105.549 66.9091 108.727 70.0869 108.727 74.0069V105.939C108.727 112.098 103.735 117.091 97.5758 117.091H94.1562C91.7612 117.091 90.481 114.27 92.0577 112.468L97.2691 106.509H81.9708Z" fill="black"/>
<path fill-rule="evenodd" clip-rule="evenodd" d="M128.522 129.961C127.474 131.336 126.775 133.054 126.425 135.117C126.425 137.179 126.775 139.241 128.173 140.96C128.871 140.272 129.57 139.585 129.92 138.554C130.269 137.523 130.619 136.491 130.619 135.46C130.619 133.398 129.92 131.336 128.522 129.961ZM138.307 130.305C138.656 129.274 138.656 128.242 138.307 127.211C137.957 125.149 136.559 123.43 135.162 122.056C134.987 122.227 134.9 122.399 134.812 122.571C134.725 122.743 134.637 122.915 134.463 123.087C134.463 123.259 134.375 123.516 134.288 123.774C134.201 124.032 134.113 124.29 134.113 124.462C133.88 125.149 133.958 125.836 134.036 126.524C134.074 126.868 134.113 127.211 134.113 127.555C134.463 129.617 135.511 131.68 136.909 133.054C137.055 132.839 137.201 132.639 137.34 132.447C137.869 131.721 138.307 131.121 138.307 130.305ZM144.946 120.337C144.946 119.306 144.946 118.275 144.597 117.244C143.898 115.181 142.151 113.807 140.403 112.775C140.403 112.918 140.344 113.06 140.273 113.227C140.174 113.463 140.054 113.748 140.054 114.15V115.525C140.054 116.341 140.273 116.942 140.537 117.668C140.607 117.859 140.68 118.06 140.753 118.275C141.452 120.337 142.85 122.056 144.597 123.087C144.597 122.778 144.668 122.399 144.745 121.983C144.84 121.472 144.946 120.905 144.946 120.337ZM143.549 103.152C143.199 104.87 143.549 106.589 144.597 108.651C145.645 110.369 147.393 111.744 149.14 112.775C149.489 111.744 149.489 110.713 149.489 109.682C149.489 108.651 149.14 107.62 148.441 106.932C147.393 104.87 145.645 103.839 143.549 103.152ZM147.043 97.9958C148.441 99.3707 150.538 100.746 152.285 101.089C152.285 100.058 152.285 99.027 151.936 97.9958C151.69 97.2724 151.273 96.7182 150.805 96.0958C150.605 95.831 150.397 95.5539 150.188 95.2462C149.489 94.5587 148.441 93.8713 147.742 93.5276C146.694 93.1839 145.645 92.8402 144.597 92.8402C144.597 93.1839 144.597 93.8713 144.946 94.215C144.946 94.3869 145.034 94.6447 145.121 94.9024C145.208 95.1602 145.296 95.418 145.296 95.5899C145.645 95.9336 145.907 96.3632 146.169 96.7929C146.432 97.2225 146.694 97.6521 147.043 97.9958ZM150.188 88.7157C151.237 89.0594 152.285 89.4031 153.333 89.4031C153.333 88.3719 152.984 87.3408 152.285 86.6534C151.935 86.3097 151.586 85.9659 151.237 85.2785L150.188 84.2474C149.14 83.56 148.441 83.2163 147.393 82.8726C146.344 82.5289 145.296 82.5289 144.247 82.8726C144.247 83.0149 144.307 83.1573 144.378 83.3241C144.477 83.56 144.597 83.8447 144.597 84.2474C144.772 84.4193 144.859 84.5911 144.946 84.763C145.034 84.9348 145.121 85.1067 145.296 85.2785C145.529 85.5077 145.723 85.7368 145.917 85.966C146.305 86.4242 146.694 86.8825 147.393 87.3408C147.604 87.4449 147.848 87.5805 148.114 87.7285C148.726 88.0693 149.457 88.476 150.188 88.7157ZM148.441 73.2486C148.266 73.2486 148.179 73.1627 148.091 73.0768C148.004 72.9909 147.917 72.9049 147.742 72.9049C145.645 71.8738 143.549 71.8738 141.452 72.5612C141.801 73.2486 142.151 73.9361 142.85 74.6235C143.549 75.3109 144.247 75.9983 145.296 76.342L148.441 77.3732H151.586C151.586 77.0295 151.237 76.3421 150.887 75.9983C150.538 75.6546 150.188 75.3109 149.839 74.6235L148.79 73.5924L148.441 73.2486ZM145.645 63.9685C144.946 63.281 143.898 62.9373 142.85 62.5936C140.753 62.2499 138.656 62.5936 136.909 63.6247C137.258 64.3122 137.957 64.9996 139.006 65.3433C139.705 66.0307 140.753 66.3744 141.801 66.3744C143.898 67.0618 145.995 66.7181 148.091 66.0307C147.742 65.687 147.393 65.3433 147.393 64.6559C146.728 64.6559 146.344 64.3796 146.063 64.1773C145.901 64.0605 145.773 63.9685 145.645 63.9685ZM130.269 55.3757C131.667 56.4068 133.414 57.4379 135.511 57.4379C137.608 57.4379 139.705 57.0942 141.452 56.0631C140.753 55.3757 140.054 54.6882 139.006 54.3445C137.957 54.0008 136.909 53.6571 135.861 53.6571C134.113 52.9697 132.017 54.0008 130.269 55.3757ZM50.2439 135.46C50.2439 136.491 50.5934 137.523 50.9429 138.554C51.2923 139.585 51.9912 140.272 52.6901 140.96C53.7385 139.241 54.4374 137.179 54.4374 135.117C54.4374 133.054 53.7385 131.336 52.3407 129.961C50.9429 131.336 50.2439 133.398 50.2439 135.46ZM46.7494 124.462C46.7494 124.29 46.662 124.032 46.5747 123.774C46.4873 123.516 46.3999 123.259 46.3999 123.087C46.3999 122.743 46.0505 122.399 45.701 122.056C43.9537 123.43 42.9054 125.149 42.5559 127.211C42.323 127.899 42.4006 128.586 42.4783 129.274C42.5171 129.617 42.5559 129.961 42.5559 130.305C42.9054 131.336 43.2548 132.023 43.9537 133.054C45.3516 131.68 46.3999 129.617 46.7494 127.555V124.462ZM35.9163 120.337C35.9163 121.368 36.2657 122.399 36.6152 123.087C38.3625 122.056 39.7603 120.337 40.4592 118.275C40.8086 117.244 41.1581 116.213 41.1581 115.525V114.15C41.1581 113.807 41.1581 113.119 40.8086 112.775C39.0614 113.807 37.3141 115.181 36.6152 117.244C35.9163 118.275 35.9163 119.306 35.9163 120.337ZM31.3733 109.682C31.3733 110.713 31.3733 111.744 31.7228 112.775C33.4701 112.088 35.2174 110.369 36.2657 108.651C37.3141 106.932 37.6635 104.87 37.3141 103.152C35.2174 103.839 33.4701 104.87 32.4217 106.589C31.7228 107.62 31.3733 108.651 31.3733 109.682ZM28.9272 97.9958C28.5777 99.027 28.5777 100.058 28.5777 101.089C30.6744 100.746 32.4217 99.7144 33.8195 97.9958C34.5184 97.3084 35.2174 96.2773 35.5668 95.5899C35.9163 95.2462 35.9163 94.9024 35.9163 94.215C35.9163 94.0432 36.0036 93.7854 36.091 93.5276C36.1784 93.2698 36.2657 93.012 36.2657 92.8402C35.2174 92.8402 34.169 93.1839 33.1206 93.5276C32.0723 93.8713 31.3733 94.5587 30.6744 95.2462C29.8212 96.0854 29.4309 96.9245 29.1268 97.5784C29.0572 97.728 28.9922 97.8679 28.9272 97.9958ZM31.0239 88.3719C32.0723 88.0282 33.1206 87.6845 33.8195 86.9971L35.9163 84.9348C36.091 84.763 36.1784 84.5911 36.2657 84.4193C36.3531 84.2474 36.4404 84.0755 36.6152 83.9037C36.9646 83.56 36.9646 83.2163 36.9646 82.5288H33.8195C32.7712 82.8726 31.7228 83.2163 31.0239 83.9037L29.9755 84.9348C29.6261 85.2785 29.2766 85.6222 28.9272 86.3097C28.2282 87.3408 27.8788 88.0282 27.8788 89.0594C28.9272 89.0594 29.9755 88.7156 31.0239 88.3719ZM31.0239 74.6235C30.6744 74.9672 30.325 75.3109 29.9755 75.9983C29.8008 76.1702 29.7134 76.428 29.6261 76.6858C29.5387 76.9435 29.4513 77.2013 29.2766 77.3732C30.325 77.7169 31.3733 77.7169 32.4217 77.3732C33.4701 77.3732 34.5184 77.0295 35.5668 76.342C36.6152 75.9983 37.3141 75.3109 38.013 74.6235C38.7119 73.9361 39.0614 73.2486 39.4108 72.5612C37.3141 71.8738 35.2174 71.8738 33.1206 72.9049C32.9459 72.9049 32.8585 72.9909 32.7712 73.0768C32.6838 73.1627 32.5964 73.2486 32.4217 73.2486C32.247 73.2486 32.1596 73.3346 32.0723 73.4205C31.9849 73.5064 31.8975 73.5924 31.7228 73.5924C31.7228 73.9361 31.3733 74.2798 31.0239 74.6235ZM34.3377 64.816C34.2796 64.8821 34.2243 64.9452 34.169 64.9996C33.8195 65.3433 33.4701 65.687 33.4701 66.3744C35.5668 67.0618 37.6635 67.0619 39.7603 66.7181C40.8086 66.3744 41.857 66.0307 42.5559 65.687C43.2548 65.3433 43.9537 64.6559 44.6527 63.9685C42.9054 62.9373 40.8086 62.5936 38.7119 62.9373C37.6635 63.281 36.6152 63.6247 35.9163 64.3122C35.0339 64.0229 34.6466 64.4641 34.3377 64.816ZM41.857 54.0008C40.8086 54.3445 40.1097 55.032 39.4108 55.7194C41.1581 56.7505 43.2548 57.4379 45.3516 57.0942C47.4483 57.0942 49.1956 56.0631 50.5934 55.032C48.8461 53.6571 47.0988 52.9697 44.6527 52.9697C44.3281 53.0761 44.0035 53.1496 43.6893 53.2207C42.9887 53.3793 42.3396 53.5262 41.857 54.0008Z" fill="black"/>
<path fill-rule="evenodd" clip-rule="evenodd" d="M135.313 48.1449C134.516 48.8261 133.495 49.246 132.475 49.666C131.764 49.9587 130.944 50.1245 130.257 50.2634C129.959 50.3238 129.685 50.379 129.457 50.4374C128.628 50.5432 128.035 50.4471 127.442 50.3511C127.145 50.3031 126.849 50.255 126.523 50.2322C126.278 50.2151 126.1 50.1413 125.922 50.0674C125.744 49.9935 125.566 49.9197 125.322 49.9026C125.06 49.5965 124.784 49.4579 124.555 49.3432C124.393 49.262 124.255 49.1928 124.163 49.0846C124.736 48.1421 125.533 47.4609 126.553 47.041C127.574 46.621 128.328 46.4282 129.572 46.2695L131.039 46.3721C131.751 46.6676 132.24 46.7018 132.729 46.736C133.707 46.8044 134.643 47.3611 135.313 48.1449Z" fill="black"/>
<path fill-rule="evenodd" clip-rule="evenodd" d="M53.7336 49.3214C51.8102 48.9412 49.493 47.9836 48.2245 46.7338C49.0764 46.1528 49.9282 45.5718 50.977 45.2795C51.7128 45.0745 52.4057 45.1068 53.1839 45.1432C53.5149 45.1586 53.8614 45.1748 54.2332 45.1737C55.1949 45.3638 56.3535 45.8426 57.0313 46.2263C57.9059 46.8988 58.7806 47.5712 59.3713 48.4373C59.0873 48.631 58.5194 49.0183 58.0385 48.9233C57.8966 49.0201 57.6344 49.0932 57.3722 49.1663C57.11 49.2393 56.8478 49.3124 56.7058 49.4093C56.2249 49.3142 55.7223 49.3398 55.2197 49.3653C54.7171 49.3909 54.2145 49.4164 53.7336 49.3214Z" fill="black"/>
</svg>